# xmcd CD database file
#
# Track frame offsets:
#	150
#	20522
#	33430
#	54050
#	68572
#	86382
#	111007
#	130887
#	148722
#	164937
#	184577
#
# Disc length: 2821 seconds
#
# Revision: 5
# Processed by: cddbd v1.5.2PL0 Copyright (c) Steve Scherf et al.
# Submitted via: CDex 1.70beta3
#
DISCID=8e0b030b
DTITLE=BOOWY - JUST A HERO
DYEAR=1987
DGENRE=J-Rock
TTITLE0=DANCING IN THE PLEASURE LAND
TTITLE1=ROUGE OF GRAY
TTITLE2=わがままジュリエット
TTITLE3=PASTIC OCEAN
TTITLE4=JUSTY
TTITLE5=JUST A HERO
TTITLE6=1994 -LABEL OF COMPLEX-
TTITLE7=ミス・ミステリー・レディ (VISUAL VISION)
TTITLE8=BLUE VACATION
TTITLE9=LIKE A CHILD
TTITLE10=WELCOME TO THE TWILIGHT
EXTD=YEAR: 1987
EXTT0=
EXTT1=
EXTT2=
EXTT3=
EXTT4=
EXTT5=
EXTT6=
EXTT7=
EXTT8=
EXTT9=
EXTT10=
PLAYORDER=
